<svg width="240" height="75" viewBox="0 0 240 75" fill="none" xmlns="http://www.w3.org/2000/svg">
<path d="M91.5438 27.4844H96.4344L100.216 33.8594L104.059 27.4844H108.981L102.45 38.4062V48H98.075V38.4062L91.5438 27.4844ZM113.683 27.4844H118.042V40.0312C118.042 41.1979 118.365 42.1354 119.011 42.8438C119.656 43.5521 120.505 43.9062 121.558 43.9062C122.766 43.9062 123.703 43.5521 124.37 42.8438C125.037 42.125 125.37 41.1146 125.37 39.8125V27.4844H129.714V40.7656C129.714 41.9323 129.412 43.1458 128.808 44.4062C128.203 45.6562 127.271 46.6146 126.011 47.2812C124.761 47.9479 123.36 48.2812 121.808 48.2812C118.995 48.2812 116.938 47.5 115.636 45.9375C114.334 44.3646 113.683 42.7135 113.683 40.9844V27.4844ZM142.368 27.4844H145.79L154.165 48H149.728L148.056 43.9688H140.196L138.587 48H134.165L142.368 27.4844ZM144.087 34.2031L141.696 40.25H146.556L144.087 34.2031ZM172.773 27.4844H177.101V48H172.819L163.398 34.7188V48H158.991V27.4844H163.335L172.773 40.6719V27.4844ZM183.427 27.4844H198.302L189.052 43.75H197.974V48H182.208L191.521 31.6875H183.427V27.4844ZM203.519 27.4844H207.925V48H203.519V27.4844Z" fill="white"/>
<path d="M61.3941 38C61.3941 44.4966 60.3215 50.3151 58.6375 54.4591C57.7941 56.5346 56.8241 58.1239 55.8165 59.1727C54.8124 60.2179 53.8607 60.6414 53 60.6414C52.1393 60.6414 51.1876 60.2179 50.1835 59.1727C49.1759 58.1239 48.2059 56.5346 47.3625 54.4591C45.6785 50.3151 44.6059 44.4966 44.6059 38C44.6059 31.5034 45.6785 25.6849 47.3625 21.5409C48.2059 19.4654 49.1759 17.8761 50.1835 16.8273C51.1876 15.7821 52.1393 15.3586 53 15.3586C53.8607 15.3586 54.8124 15.7821 55.8165 16.8273C56.8241 17.8761 57.7941 19.4654 58.6375 21.5409C60.3215 25.6849 61.3941 31.5034 61.3941 38Z" stroke="white" stroke-width="2.71711"/>
<path d="M53 46.3941C46.5034 46.3941 40.6849 45.3215 36.5409 43.6376C34.4654 42.7942 32.8761 41.8241 31.8273 40.8165C30.7821 39.8124 30.3586 38.8607 30.3586 38C30.3586 37.1393 30.7821 36.1877 31.8273 35.1836C32.8761 34.1759 34.4654 33.2059 36.5409 32.3625C40.6849 30.6786 46.5034 29.606 53 29.606C59.4966 29.606 65.3151 30.6786 69.4591 32.3625C71.5346 33.2059 73.1239 34.1759 74.1727 35.1836C75.2179 36.1877 75.6414 37.1393 75.6414 38C75.6414 38.8607 75.2179 39.8124 74.1727 40.8165C73.1239 41.8241 71.5346 42.7942 69.4591 43.6376C65.3151 45.3215 59.4966 46.3941 53 46.3941Z" stroke="white" stroke-width="2.71711"/>
<circle cx="52.9767" cy="38.1419" r="3.39639" fill="white"/>
</svg>
