<?xml version="1.0" standalone="no"?><!DOCTYPE svg PUBLIC "-//W3C//DTD SVG 1.1//EN" "http://www.w3.org/Graphics/SVG/1.1/DTD/svg11.dtd"><svg t="1685441589409" class="icon" viewBox="0 0 1024 1024" version="1.1" xmlns="http://www.w3.org/2000/svg" p-id="2362" xmlns:xlink="http://www.w3.org/1999/xlink" width="200" height="200"><path d="M657.142857 435.428571q0 32-22.571429 54.285714t-54.571429 22.285714l-144.571429 0 0-153.714286 144.571429 0q32 0 54.571429 22.571429t22.571429 54.571429zm102.285714 0q0-74.285714-52.285714-126.857143t-127.142857-52.571429l-247.428571 0 0 512 102.857143 0 0-153.714286 144.571429 0q74.285714 0 126.857143-52.285714t52.571429-126.571429zm264.571429 76.571429q0 104-40.571429 198.857143t-109.142857 163.428571-163.428571 109.142857-198.857143 40.571429-198.857143-40.571429-163.428571-109.142857-109.142857-163.428571-40.571429-198.857143 40.571429-198.857143 109.142857-163.428571 163.428571-109.142857 198.857143-40.571429 198.857143 40.571429 163.428571 109.142857 109.142857 163.428571 40.571429 198.857143z" p-id="2363" fill="#ffffff"></path></svg>