<svg width="100" height="100" viewBox="0 0 100 100" fill="none" xmlns="http://www.w3.org/2000/svg">
<path d="M50 100C64.1927 99.6745 75.9928 94.8079 85.4004 85.4004C94.8079 75.9928 99.6745 64.1927 100 50C99.6745 35.8073 94.8079 24.0072 85.4004 14.5996C75.9928 5.19206 64.1927 0.325521 50 0C35.8073 0.325521 24.0072 5.19206 14.5996 14.5996C5.19206 24.0072 0.325521 35.8073 0 50C0.325521 64.1927 5.19206 75.9928 14.5996 85.4004C24.0072 94.8079 35.8073 99.6745 50 100ZM67.2502 35.4419C68.0965 34.5956 69.0731 34.1724 70.1799 34.1724C71.2866 34.1724 72.2632 34.5956 73.1095 35.4419C73.9559 36.2883 74.3791 37.2648 74.3791 38.3716C74.3791 39.4784 73.9885 40.455 73.2072 41.3013L48.0119 66.5943C47.1655 67.3755 46.1727 67.7661 45.0334 67.7661C43.8941 67.7661 42.9338 67.3755 42.1525 66.5943L28.383 52.8247C27.5366 51.9784 27.1135 51.0018 27.1135 49.8951C27.1135 48.7883 27.5366 47.8117 28.383 46.9654C29.2293 46.119 30.2059 45.6958 31.3127 45.6958C32.4194 45.6958 33.396 46.119 34.2424 46.9654L45.0822 57.7076L67.2502 35.4419Z" fill="#3FD295"/>
<path d="M50 100C64.1927 99.6745 75.9928 94.8079 85.4004 85.4004C94.8079 75.9928 99.6745 64.1927 100 50C99.6745 35.8073 94.8079 24.0072 85.4004 14.5996C75.9928 5.19206 64.1927 0.325521 50 0C35.8073 0.325521 24.0072 5.19206 14.5996 14.5996C5.19206 24.0072 0.325521 35.8073 0 50C0.325521 64.1927 5.19206 75.9928 14.5996 85.4004C24.0072 94.8079 35.8073 99.6745 50 100ZM67.2502 35.4419C68.0965 34.5956 69.0731 34.1724 70.1799 34.1724C71.2866 34.1724 72.2632 34.5956 73.1095 35.4419C73.9559 36.2883 74.3791 37.2648 74.3791 38.3716C74.3791 39.4784 73.9885 40.455 73.2072 41.3013L48.0119 66.5943C47.1655 67.3755 46.1727 67.7661 45.0334 67.7661C43.8941 67.7661 42.9338 67.3755 42.1525 66.5943L28.383 52.8247C27.5366 51.9784 27.1135 51.0018 27.1135 49.8951C27.1135 48.7883 27.5366 47.8117 28.383 46.9654C29.2293 46.119 30.2059 45.6958 31.3127 45.6958C32.4194 45.6958 33.396 46.119 34.2424 46.9654L45.0822 57.7076L67.2502 35.4419Z" fill="url(#paint0_linear_983_8075)"/>
<defs>
<linearGradient id="paint0_linear_983_8075" x1="50" y1="0" x2="50" y2="100" gradientUnits="userSpaceOnUse">
<stop stop-color="#6DECA0"/>
<stop offset="1" stop-color="#00E0FF"/>
</linearGradient>
</defs>
</svg>
